<svg width="40" height="40" viewBox="0 0 40 40" fill="none" xmlns="http://www.w3.org/2000/svg">
<path d="M22.9863 37.0552L20.0414 40L17.0965 37.0552L20.0414 34.1103L22.9863 37.0552Z" fill="#FCFCFC"/>
<path d="M17.4798 33.8303L13.6322 35.4242L12.0383 31.5766L15.8861 29.9827L17.4798 33.8303Z" fill="#FCFCFC"/>
<path d="M27.9972 31.5631L26.4035 35.4108L22.5557 33.8169L24.1495 29.9693L27.9972 31.5631Z" fill="#FCFCFC"/>
<path d="M10.0521 34.1713H5.88724V30.0066H10.0521V34.1713Z" fill="#FCFCFC"/>
<path d="M34.1718 34.1135H30.0071V29.9489H34.1718V34.1135Z" fill="#FCFCFC"/>
<path d="M22.9865 28.747L20.0416 31.6918L17.0967 28.747L20.0416 25.8021L22.9865 28.747Z" fill="#FCFCFC"/>
<path d="M15.9253 28.2965H11.7605V24.1319H15.9253V28.2965Z" fill="#FCFCFC"/>
<path d="M28.2972 28.2388H24.1323V24.0743H28.2972V28.2388Z" fill="#FCFCFC"/>
<path d="M10.0308 24.1499L8.43707 27.9975L4.58934 26.4038L6.18305 22.5562L10.0308 24.1499Z" fill="#FCFCFC"/>
<path d="M35.4249 26.3673L31.5771 27.9612L29.9834 24.1135L33.8312 22.5197L35.4249 26.3673Z" fill="#FCFCFC"/>
<path d="M14.1974 20.0394L11.2527 22.9844L8.30781 20.0394L11.2527 17.0945L14.1974 20.0394Z" fill="#FCFCFC"/>
<path d="M5.88981 20.0394L2.9449 22.9842L0 20.0394L2.9449 17.0945L5.88981 20.0394Z" fill="#FCFCFC"/>
<path d="M40 19.9596L37.0551 22.9045L34.1104 19.9596L37.0551 17.0148L40 19.9596Z" fill="#FCFCFC"/>
<path d="M31.692 19.9585L28.7471 22.9033L25.8022 19.9585L28.7471 17.0136L31.692 19.9585Z" fill="#FCFCFC"/>
<path d="M10.0166 15.8853L6.16884 17.4791L4.57513 13.6315L8.42286 12.0376L10.0166 15.8853Z" fill="#FCFCFC"/>
<path d="M35.4109 13.5946L33.8171 17.4422L29.9694 15.8486L31.5631 12.0009L35.4109 13.5946Z" fill="#FCFCFC"/>
<path d="M15.8677 15.9245H11.703V11.7598H15.8677V15.9245Z" fill="#FCFCFC"/>
<path d="M28.2395 15.8669H24.0747V11.7024H28.2395V15.8669Z" fill="#FCFCFC"/>
<path d="M22.9037 11.2526L19.9588 14.1975L17.0139 11.2526L19.9588 8.3078L22.9037 11.2526Z" fill="#FCFCFC"/>
<path d="M9.9929 10.0497H5.82824V5.88512H9.9929V10.0497Z" fill="#FCFCFC"/>
<path d="M17.4441 6.18211L15.8503 10.0297L12.0026 8.43587L13.5963 4.58824L17.4441 6.18211Z" fill="#FCFCFC"/>
<path d="M27.9619 8.42206L24.1141 10.0157L22.5204 6.1681L26.3682 4.57442L27.9619 8.42206Z" fill="#FCFCFC"/>
<path d="M34.1141 9.99364H29.9495V5.82888H34.1141V9.99364Z" fill="#FCFCFC"/>
<path d="M22.9048 2.94483L19.9599 5.88966L17.015 2.94483L19.9599 0L22.9048 2.94483Z" fill="#FCFCFC"/>
</svg>
